<?xml version="1.0" encoding="utf-8"?>
<!-- Generator: Adobe Illustrator 16.0.0, SVG Export Plug-In . SVG Version: 6.00 Build 0)  -->
<!DOCTYPE svg PUBLIC "-//W3C//DTD SVG 1.1//EN" "http://www.w3.org/Graphics/SVG/1.1/DTD/svg11.dtd">
<svg version="1.1" id="Слой_1" xmlns="http://www.w3.org/2000/svg" xmlns:xlink="http://www.w3.org/1999/xlink" x="0px" y="0px"
	 width="30px" height="30px" viewBox="0 0 30 30" enable-background="new 0 0 30 30" xml:space="preserve">
<rect fill="#E12021" width="30" height="30"/>
<g>
	<path fill="#FFFFFF" d="M25.947,6.641c0.432-0.503,1.007-0.862-0.144-1.006c-3.376-0.359-6.034,4.526-9.124,7.543
		c-3.448,3.447-5.891,6.178-13.002,5.243c0.072,1.509,1.149,3.232,1.868,4.095c1.149,1.438,2.658,0.79,4.813,0.648
		c-0.216,0.216,0,0.071-0.287,0.286L9.424,23.81c-0.359,0.145-0.647,0.217-1.006,0.359c6.035,1.797,10.129-8.262,12.141-9.842
		c2.012,5.388-2.514,8.621-1.293,8.908c1.365,0.287,8.189-5.604,4.599-12.429c-0.432-0.79-0.432-0.718,0.072-1.437
		C24.582,8.437,25.229,7.503,25.947,6.641z"/>
	<path fill="#FFFFFF" d="M9.281,17.848L8.85,17.56c-1.365-0.862-1.652-2.442-1.509-4.095c0.144-1.796,1.078-3.232,1.94-4.31
		c0.718-0.862,0.718-0.934,2.083-1.006c3.017-0.215,5.173,0.647,7.112,2.585c0.862-0.574,1.58-2.227,1.94-3.52
		c-1.365-1.437-5.675-1.868-8.549-0.503c-0.934,0.431-1.509,1.006-2.299,1.365c-3.592,1.58-6.25,4.453-6.035,8.477
		c0.79,0.432,1.149,0.79,2.299,1.078S8.059,17.92,9.281,17.848z"/>
</g>
</svg>
